<?xml version="1.0" encoding="UTF-8"?>
<svg xmlns="http://www.w3.org/2000/svg" width="870" height="200" viewBox="0 0 870 200" fill="none" role="img" aria-label="grpcer — daily commits over the last 26 weeks">
  <title>grpcer — daily commits over the last 26 weeks</title>
  <defs>
    <linearGradient id="barGrad" x1="0" y1="64" x2="0" y2="160" gradientUnits="userSpaceOnUse">
      <stop offset="0" stop-color="#2dd4bf"/>
      <stop offset="0.55" stop-color="#14b8a6"/>
      <stop offset="1" stop-color="#0f766e"/>
    </linearGradient>
    <linearGradient id="gridFade" x1="50" y1="0" x2="848" y2="0" gradientUnits="userSpaceOnUse">
      <stop offset="0" stop-color="#818b98" stop-opacity="0.26"/>
      <stop offset="0.16" stop-color="#818b98" stop-opacity="0.12"/>
      <stop offset="1" stop-color="#818b98" stop-opacity="0.04"/>
    </linearGradient>
  </defs>
  <rect x="0" y="0" width="870" height="200" rx="10" fill="#f6f8fa" stroke="#d1d9e0"/>
  <text x="22" y="32" font-family="JetBrains Mono, ui-monospace, SFMono-Regular, Menlo, Consolas, Liberation Mono, monospace" font-size="10" fill="#59636e" letter-spacing="2">DAILY COMMITS</text>
  <text x="848" y="32" font-family="JetBrains Mono, ui-monospace, SFMono-Regular, Menlo, Consolas, Liberation Mono, monospace" font-size="10.5" fill="#818b98" text-anchor="end">last 26 weeks · peak 240 on one day</text>
  <line x1="50" y1="128.0" x2="848" y2="128.0" stroke="url(#gridFade)" stroke-width="1"/>
  <line x1="50" y1="96.0" x2="848" y2="96.0" stroke="url(#gridFade)" stroke-width="1"/>
  <line x1="50" y1="64.0" x2="848" y2="64.0" stroke="url(#gridFade)" stroke-width="1"/>
  <g><rect x="269.23" y="158" width="3.28" height="2" rx="1" fill="#e4e8ed"/><rect x="453.38" y="158" width="3.28" height="2" rx="1" fill="#e4e8ed"/><rect x="786.62" y="158" width="3.28" height="2" rx="1" fill="#e4e8ed"/></g>
  <g><rect x="50.0" y="157.0" width="3.28" height="3.0" rx="1.2" fill="url(#barGrad)"/><rect x="54.38" y="155.2" width="3.28" height="4.8" rx="1.2" fill="url(#barGrad)"/><rect x="58.77" y="157.0" width="3.28" height="3.0" rx="1.2" fill="url(#barGrad)"/><rect x="63.15" y="156.8" width="3.28" height="3.2" rx="1.2" fill="url(#barGrad)"/><rect x="67.54" y="157.0" width="3.28" height="3.0" rx="1.2" fill="url(#barGrad)"/><rect x="71.92" y="157.0" width="3.28" height="3.0" rx="1.2" fill="url(#barGrad)"/><rect x="76.31" y="157.0" width="3.28" height="3.0" rx="1.2" fill="url(#barGrad)"/><rect x="80.69" y="156.8" width="3.28" height="3.2" rx="1.2" fill="url(#barGrad)"/><rect x="85.08" y="155.2" width="3.28" height="4.8" rx="1.2" fill="url(#barGrad)"/><rect x="89.46" y="157.0" width="3.28" height="3.0" rx="1.2" fill="url(#barGrad)"/><rect x="93.85" y="157.0" width="3.28" height="3.0" rx="1.2" fill="url(#barGrad)"/><rect x="98.23" y="157.0" width="3.28" height="3.0" rx="1.2" fill="url(#barGrad)"/><rect x="102.62" y="154.8" width="3.28" height="5.2" rx="1.2" fill="url(#barGrad)"/><rect x="107.0" y="155.6" width="3.28" height="4.4" rx="1.2" fill="url(#barGrad)"/><rect x="111.38" y="156.4" width="3.28" height="3.6" rx="1.2" fill="url(#barGrad)"/><rect x="115.77" y="148.4" width="3.28" height="11.6" rx="1.2" fill="url(#barGrad)"/><rect x="120.15" y="156.8" width="3.28" height="3.2" rx="1.2" fill="url(#barGrad)"/><rect x="124.54" y="156.4" width="3.28" height="3.6" rx="1.2" fill="url(#barGrad)"/><rect x="128.92" y="153.2" width="3.28" height="6.8" rx="1.2" fill="url(#barGrad)"/><rect x="133.31" y="156.0" width="3.28" height="4.0" rx="1.2" fill="url(#barGrad)"/><rect x="137.69" y="157.0" width="3.28" height="3.0" rx="1.2" fill="url(#barGrad)"/><rect x="142.08" y="157.0" width="3.28" height="3.0" rx="1.2" fill="url(#barGrad)"/><rect x="146.46" y="155.2" width="3.28" height="4.8" rx="1.2" fill="url(#barGrad)"/><rect x="150.85" y="155.6" width="3.28" height="4.4" rx="1.2" fill="url(#barGrad)"/><rect x="155.23" y="145.6" width="3.28" height="14.4" rx="1.2" fill="url(#barGrad)"/><rect x="159.62" y="153.6" width="3.28" height="6.4" rx="1.2" fill="url(#barGrad)"/><rect x="164.0" y="148.8" width="3.28" height="11.2" rx="1.2" fill="url(#barGrad)"/><rect x="168.38" y="154.4" width="3.28" height="5.6" rx="1.2" fill="url(#barGrad)"/><rect x="172.77" y="152.0" width="3.28" height="8.0" rx="1.2" fill="url(#barGrad)"/><rect x="177.15" y="151.6" width="3.28" height="8.4" rx="1.2" fill="url(#barGrad)"/><rect x="181.54" y="155.2" width="3.28" height="4.8" rx="1.2" fill="url(#barGrad)"/><rect x="185.92" y="157.0" width="3.28" height="3.0" rx="1.2" fill="url(#barGrad)"/><rect x="190.31" y="157.0" width="3.28" height="3.0" rx="1.2" fill="url(#barGrad)"/><rect x="194.69" y="157.0" width="3.28" height="3.0" rx="1.2" fill="url(#barGrad)"/><rect x="199.08" y="151.2" width="3.28" height="8.8" rx="1.2" fill="url(#barGrad)"/><rect x="203.46" y="144.4" width="3.28" height="15.6" rx="1.2" fill="url(#barGrad)"/><rect x="207.85" y="151.6" width="3.28" height="8.4" rx="1.2" fill="url(#barGrad)"/><rect x="212.23" y="153.2" width="3.28" height="6.8" rx="1.2" fill="url(#barGrad)"/><rect x="216.62" y="157.0" width="3.28" height="3.0" rx="1.2" fill="url(#barGrad)"/><rect x="221.0" y="157.0" width="3.28" height="3.0" rx="1.2" fill="url(#barGrad)"/><rect x="225.38" y="154.0" width="3.28" height="6.0" rx="1.2" fill="url(#barGrad)"/><rect x="229.77" y="157.0" width="3.28" height="3.0" rx="1.2" fill="url(#barGrad)"/><rect x="234.15" y="154.0" width="3.28" height="6.0" rx="1.2" fill="url(#barGrad)"/><rect x="238.54" y="146.0" width="3.28" height="14.0" rx="1.2" fill="url(#barGrad)"/><rect x="242.92" y="156.0" width="3.28" height="4.0" rx="1.2" fill="url(#barGrad)"/><rect x="247.31" y="151.6" width="3.28" height="8.4" rx="1.2" fill="url(#barGrad)"/><rect x="251.69" y="156.8" width="3.28" height="3.2" rx="1.2" fill="url(#barGrad)"/><rect x="256.08" y="157.0" width="3.28" height="3.0" rx="1.2" fill="url(#barGrad)"/><rect x="260.46" y="157.0" width="3.28" height="3.0" rx="1.2" fill="url(#barGrad)"/><rect x="264.85" y="155.2" width="3.28" height="4.8" rx="1.2" fill="url(#barGrad)"/><rect x="273.62" y="147.6" width="3.28" height="12.4" rx="1.2" fill="url(#barGrad)"/><rect x="278.0" y="153.6" width="3.28" height="6.4" rx="1.2" fill="url(#barGrad)"/><rect x="282.38" y="145.2" width="3.28" height="14.8" rx="1.2" fill="url(#barGrad)"/><rect x="286.77" y="140.4" width="3.28" height="19.6" rx="1.2" fill="url(#barGrad)"/><rect x="291.15" y="154.4" width="3.28" height="5.6" rx="1.2" fill="url(#barGrad)"/><rect x="295.54" y="148.8" width="3.28" height="11.2" rx="1.2" fill="url(#barGrad)"/><rect x="299.92" y="152.4" width="3.28" height="7.6" rx="1.2" fill="url(#barGrad)"/><rect x="304.31" y="152.4" width="3.28" height="7.6" rx="1.2" fill="url(#barGrad)"/><rect x="308.69" y="152.4" width="3.28" height="7.6" rx="1.2" fill="url(#barGrad)"/><rect x="313.08" y="149.6" width="3.28" height="10.4" rx="1.2" fill="url(#barGrad)"/><rect x="317.46" y="153.6" width="3.28" height="6.4" rx="1.2" fill="url(#barGrad)"/><rect x="321.85" y="141.6" width="3.28" height="18.4" rx="1.2" fill="url(#barGrad)"/><rect x="326.23" y="157.0" width="3.28" height="3.0" rx="1.2" fill="url(#barGrad)"/><rect x="330.62" y="153.2" width="3.28" height="6.8" rx="1.2" fill="url(#barGrad)"/><rect x="335.0" y="129.2" width="3.28" height="30.8" rx="1.2" fill="url(#barGrad)"/><rect x="339.38" y="145.6" width="3.28" height="14.4" rx="1.2" fill="url(#barGrad)"/><rect x="343.77" y="145.2" width="3.28" height="14.8" rx="1.2" fill="url(#barGrad)"/><rect x="348.15" y="146.0" width="3.28" height="14.0" rx="1.2" fill="url(#barGrad)"/><rect x="352.54" y="142.0" width="3.28" height="18.0" rx="1.2" fill="url(#barGrad)"/><rect x="356.92" y="154.0" width="3.28" height="6.0" rx="1.2" fill="url(#barGrad)"/><rect x="361.31" y="149.2" width="3.28" height="10.8" rx="1.2" fill="url(#barGrad)"/><rect x="365.69" y="154.8" width="3.28" height="5.2" rx="1.2" fill="url(#barGrad)"/><rect x="370.08" y="156.4" width="3.28" height="3.6" rx="1.2" fill="url(#barGrad)"/><rect x="374.46" y="150.4" width="3.28" height="9.6" rx="1.2" fill="url(#barGrad)"/><rect x="378.85" y="140.8" width="3.28" height="19.2" rx="1.2" fill="url(#barGrad)"/><rect x="383.23" y="136.0" width="3.28" height="24.0" rx="1.2" fill="url(#barGrad)"/><rect x="387.62" y="141.6" width="3.28" height="18.4" rx="1.2" fill="url(#barGrad)"/><rect x="392.0" y="150.0" width="3.28" height="10.0" rx="1.2" fill="url(#barGrad)"/><rect x="396.38" y="152.8" width="3.28" height="7.2" rx="1.2" fill="url(#barGrad)"/><rect x="400.77" y="151.6" width="3.28" height="8.4" rx="1.2" fill="url(#barGrad)"/><rect x="405.15" y="146.4" width="3.28" height="13.6" rx="1.2" fill="url(#barGrad)"/><rect x="409.54" y="137.2" width="3.28" height="22.8" rx="1.2" fill="url(#barGrad)"/><rect x="413.92" y="148.0" width="3.28" height="12.0" rx="1.2" fill="url(#barGrad)"/><rect x="418.31" y="156.0" width="3.28" height="4.0" rx="1.2" fill="url(#barGrad)"/><rect x="422.69" y="156.8" width="3.28" height="3.2" rx="1.2" fill="url(#barGrad)"/><rect x="427.08" y="157.0" width="3.28" height="3.0" rx="1.2" fill="url(#barGrad)"/><rect x="431.46" y="157.0" width="3.28" height="3.0" rx="1.2" fill="url(#barGrad)"/><rect x="435.85" y="145.2" width="3.28" height="14.8" rx="1.2" fill="url(#barGrad)"/><rect x="440.23" y="153.2" width="3.28" height="6.8" rx="1.2" fill="url(#barGrad)"/><rect x="444.62" y="151.6" width="3.28" height="8.4" rx="1.2" fill="url(#barGrad)"/><rect x="449.0" y="157.0" width="3.28" height="3.0" rx="1.2" fill="url(#barGrad)"/><rect x="457.77" y="157.0" width="3.28" height="3.0" rx="1.2" fill="url(#barGrad)"/><rect x="462.15" y="152.8" width="3.28" height="7.2" rx="1.2" fill="url(#barGrad)"/><rect x="466.54" y="148.0" width="3.28" height="12.0" rx="1.2" fill="url(#barGrad)"/><rect x="470.92" y="154.0" width="3.28" height="6.0" rx="1.2" fill="url(#barGrad)"/><rect x="475.31" y="150.4" width="3.28" height="9.6" rx="1.2" fill="url(#barGrad)"/><rect x="479.69" y="150.4" width="3.28" height="9.6" rx="1.2" fill="url(#barGrad)"/><rect x="484.08" y="150.4" width="3.28" height="9.6" rx="1.2" fill="url(#barGrad)"/><rect x="488.46" y="157.0" width="3.28" height="3.0" rx="1.2" fill="url(#barGrad)"/><rect x="492.85" y="154.8" width="3.28" height="5.2" rx="1.2" fill="url(#barGrad)"/><rect x="497.23" y="142.4" width="3.28" height="17.6" rx="1.2" fill="url(#barGrad)"/><rect x="501.62" y="136.0" width="3.28" height="24.0" rx="1.2" fill="url(#barGrad)"/><rect x="506.0" y="142.4" width="3.28" height="17.6" rx="1.2" fill="url(#barGrad)"/><rect x="510.38" y="146.8" width="3.28" height="13.2" rx="1.2" fill="url(#barGrad)"/><rect x="514.77" y="152.8" width="3.28" height="7.2" rx="1.2" fill="url(#barGrad)"/><rect x="519.15" y="145.6" width="3.28" height="14.4" rx="1.2" fill="url(#barGrad)"/><rect x="523.54" y="145.2" width="3.28" height="14.8" rx="1.2" fill="url(#barGrad)"/><rect x="527.92" y="152.4" width="3.28" height="7.6" rx="1.2" fill="url(#barGrad)"/><rect x="532.31" y="153.6" width="3.28" height="6.4" rx="1.2" fill="url(#barGrad)"/><rect x="536.69" y="149.6" width="3.28" height="10.4" rx="1.2" fill="url(#barGrad)"/><rect x="541.08" y="146.0" width="3.28" height="14.0" rx="1.2" fill="url(#barGrad)"/><rect x="545.46" y="153.2" width="3.28" height="6.8" rx="1.2" fill="url(#barGrad)"/><rect x="549.85" y="148.0" width="3.28" height="12.0" rx="1.2" fill="url(#barGrad)"/><rect x="554.23" y="137.6" width="3.28" height="22.4" rx="1.2" fill="url(#barGrad)"/><rect x="558.62" y="148.4" width="3.28" height="11.6" rx="1.2" fill="url(#barGrad)"/><rect x="563.0" y="152.0" width="3.28" height="8.0" rx="1.2" fill="url(#barGrad)"/><rect x="567.38" y="136.0" width="3.28" height="24.0" rx="1.2" fill="url(#barGrad)"/><rect x="571.77" y="149.6" width="3.28" height="10.4" rx="1.2" fill="url(#barGrad)"/><rect x="576.15" y="131.2" width="3.28" height="28.8" rx="1.2" fill="url(#barGrad)"/><rect x="580.54" y="145.6" width="3.28" height="14.4" rx="1.2" fill="url(#barGrad)"/><rect x="584.92" y="139.6" width="3.28" height="20.4" rx="1.2" fill="url(#barGrad)"/><rect x="589.31" y="144.4" width="3.28" height="15.6" rx="1.2" fill="url(#barGrad)"/><rect x="593.69" y="143.6" width="3.28" height="16.4" rx="1.2" fill="url(#barGrad)"/><rect x="598.08" y="146.4" width="3.28" height="13.6" rx="1.2" fill="url(#barGrad)"/><rect x="602.46" y="151.2" width="3.28" height="8.8" rx="1.2" fill="url(#barGrad)"/><rect x="606.85" y="142.8" width="3.28" height="17.2" rx="1.2" fill="url(#barGrad)"/><rect x="611.23" y="150.0" width="3.28" height="10.0" rx="1.2" fill="url(#barGrad)"/><rect x="615.62" y="140.0" width="3.28" height="20.0" rx="1.2" fill="url(#barGrad)"/><rect x="620.0" y="153.2" width="3.28" height="6.8" rx="1.2" fill="url(#barGrad)"/><rect x="624.38" y="148.0" width="3.28" height="12.0" rx="1.2" fill="url(#barGrad)"/><rect x="628.77" y="154.8" width="3.28" height="5.2" rx="1.2" fill="url(#barGrad)"/><rect x="633.15" y="140.8" width="3.28" height="19.2" rx="1.2" fill="url(#barGrad)"/><rect x="637.54" y="143.6" width="3.28" height="16.4" rx="1.2" fill="url(#barGrad)"/><rect x="641.92" y="147.6" width="3.28" height="12.4" rx="1.2" fill="url(#barGrad)"/><rect x="646.31" y="144.0" width="3.28" height="16.0" rx="1.2" fill="url(#barGrad)"/><rect x="650.69" y="140.4" width="3.28" height="19.6" rx="1.2" fill="url(#barGrad)"/><rect x="655.08" y="132.8" width="3.28" height="27.2" rx="1.2" fill="url(#barGrad)"/><rect x="659.46" y="136.8" width="3.28" height="23.2" rx="1.2" fill="url(#barGrad)"/><rect x="663.85" y="128.0" width="3.28" height="32.0" rx="1.2" fill="url(#barGrad)"/><rect x="668.23" y="132.8" width="3.28" height="27.2" rx="1.2" fill="url(#barGrad)"/><rect x="672.62" y="130.4" width="3.28" height="29.6" rx="1.2" fill="url(#barGrad)"/><rect x="677.0" y="114.4" width="3.28" height="45.6" rx="1.2" fill="url(#barGrad)"/><rect x="681.38" y="136.4" width="3.28" height="23.6" rx="1.2" fill="url(#barGrad)"/><rect x="685.77" y="142.0" width="3.28" height="18.0" rx="1.2" fill="url(#barGrad)"/><rect x="690.15" y="114.8" width="3.28" height="45.2" rx="1.2" fill="url(#barGrad)"/><rect x="694.54" y="110.8" width="3.28" height="49.2" rx="1.2" fill="url(#barGrad)"/><rect x="698.92" y="128.4" width="3.28" height="31.6" rx="1.2" fill="url(#barGrad)"/><rect x="703.31" y="138.4" width="3.28" height="21.6" rx="1.2" fill="url(#barGrad)"/><rect x="707.69" y="136.4" width="3.28" height="23.6" rx="1.2" fill="url(#barGrad)"/><rect x="712.08" y="64.0" width="3.28" height="96.0" rx="1.2" fill="url(#barGrad)"/><rect x="716.46" y="113.2" width="3.28" height="46.8" rx="1.2" fill="url(#barGrad)"/><rect x="720.85" y="135.2" width="3.28" height="24.8" rx="1.2" fill="url(#barGrad)"/><rect x="725.23" y="116.8" width="3.28" height="43.2" rx="1.2" fill="url(#barGrad)"/><rect x="729.62" y="138.4" width="3.28" height="21.6" rx="1.2" fill="url(#barGrad)"/><rect x="734.0" y="128.4" width="3.28" height="31.6" rx="1.2" fill="url(#barGrad)"/><rect x="738.38" y="128.8" width="3.28" height="31.2" rx="1.2" fill="url(#barGrad)"/><rect x="742.77" y="126.0" width="3.28" height="34.0" rx="1.2" fill="url(#barGrad)"/><rect x="747.15" y="102.0" width="3.28" height="58.0" rx="1.2" fill="url(#barGrad)"/><rect x="751.54" y="115.6" width="3.28" height="44.4" rx="1.2" fill="url(#barGrad)"/><rect x="755.92" y="98.8" width="3.28" height="61.2" rx="1.2" fill="url(#barGrad)"/><rect x="760.31" y="100.8" width="3.28" height="59.2" rx="1.2" fill="url(#barGrad)"/><rect x="764.69" y="110.8" width="3.28" height="49.2" rx="1.2" fill="url(#barGrad)"/><rect x="769.08" y="96.4" width="3.28" height="63.6" rx="1.2" fill="url(#barGrad)"/><rect x="773.46" y="117.6" width="3.28" height="42.4" rx="1.2" fill="url(#barGrad)"/><rect x="777.85" y="152.4" width="3.28" height="7.6" rx="1.2" fill="url(#barGrad)"/><rect x="782.23" y="140.4" width="3.28" height="19.6" rx="1.2" fill="url(#barGrad)"/><rect x="791.0" y="151.6" width="3.28" height="8.4" rx="1.2" fill="url(#barGrad)"/><rect x="795.38" y="114.0" width="3.28" height="46.0" rx="1.2" fill="url(#barGrad)"/><rect x="799.77" y="116.4" width="3.28" height="43.6" rx="1.2" fill="url(#barGrad)"/><rect x="804.15" y="122.0" width="3.28" height="38.0" rx="1.2" fill="url(#barGrad)"/><rect x="808.54" y="138.4" width="3.28" height="21.6" rx="1.2" fill="url(#barGrad)"/><rect x="812.92" y="71.2" width="3.28" height="88.8" rx="1.2" fill="url(#barGrad)"/><rect x="817.31" y="98.0" width="3.28" height="62.0" rx="1.2" fill="url(#barGrad)"/><rect x="821.69" y="70.4" width="3.28" height="89.6" rx="1.2" fill="url(#barGrad)"/><rect x="826.08" y="124.4" width="3.28" height="35.6" rx="1.2" fill="url(#barGrad)"/><rect x="830.46" y="129.2" width="3.28" height="30.8" rx="1.2" fill="url(#barGrad)"/><rect x="834.85" y="124.4" width="3.28" height="35.6" rx="1.2" fill="url(#barGrad)"/><rect x="839.23" y="123.6" width="3.28" height="36.4" rx="1.2" fill="url(#barGrad)"/><rect x="843.62" y="152.4" width="3.28" height="7.6" rx="1.2" fill="url(#barGrad)"/></g>
  <rect x="50" y="160" width="798" height="1" fill="#d1d9e0"/>
  <text x="42" y="163.5" font-family="JetBrains Mono, ui-monospace, SFMono-Regular, Menlo, Consolas, Liberation Mono, monospace" font-size="10" fill="#59636e" text-anchor="end">0</text>
  <text x="42" y="131.5" font-family="JetBrains Mono, ui-monospace, SFMono-Regular, Menlo, Consolas, Liberation Mono, monospace" font-size="10" fill="#59636e" text-anchor="end">80</text>
  <text x="42" y="99.5" font-family="JetBrains Mono, ui-monospace, SFMono-Regular, Menlo, Consolas, Liberation Mono, monospace" font-size="10" fill="#59636e" text-anchor="end">160</text>
  <text x="42" y="67.5" font-family="JetBrains Mono, ui-monospace, SFMono-Regular, Menlo, Consolas, Liberation Mono, monospace" font-size="10" fill="#59636e" text-anchor="end">240</text>
  <text x="128.92" y="180" font-family="JetBrains Mono, ui-monospace, SFMono-Regular, Menlo, Consolas, Liberation Mono, monospace" font-size="10" fill="#818b98">Apr</text>
  <text x="260.46" y="180" font-family="JetBrains Mono, ui-monospace, SFMono-Regular, Menlo, Consolas, Liberation Mono, monospace" font-size="10" fill="#818b98">May</text>
  <text x="396.38" y="180" font-family="JetBrains Mono, ui-monospace, SFMono-Regular, Menlo, Consolas, Liberation Mono, monospace" font-size="10" fill="#818b98">Jun</text>
  <text x="527.92" y="180" font-family="JetBrains Mono, ui-monospace, SFMono-Regular, Menlo, Consolas, Liberation Mono, monospace" font-size="10" fill="#818b98">Jul</text>
  <text x="663.85" y="180" font-family="JetBrains Mono, ui-monospace, SFMono-Regular, Menlo, Consolas, Liberation Mono, monospace" font-size="10" fill="#818b98">Aug</text>
  <text x="799.77" y="180" font-family="JetBrains Mono, ui-monospace, SFMono-Regular, Menlo, Consolas, Liberation Mono, monospace" font-size="10" fill="#818b98">Sep</text>
</svg>
