<?xml version="1.0" encoding="UTF-8"?>
<svg xmlns="http://www.w3.org/2000/svg" width="880" height="148" viewBox="0 0 880 148" fill="none" role="img" aria-label="grpcer — founder of oriveo, author of ownmem, Go backend">
  <title>grpcer — founder of oriveo, author of ownmem, Go backend</title>
  <defs><style>text { white-space: pre; }</style></defs>
  <rect x="0" y="0" width="282" height="148" rx="10" fill="#0e141c" stroke="#1c2733"/>
  <g transform="translate(238, 20)" stroke="#2dd4bf" stroke-opacity="0.5" stroke-width="1.8" fill="none" stroke-linecap="round" stroke-linejoin="round"><g transform="scale(1)"><path d="M12 3l8 4.5v9L12 21l-8-4.5v-9L12 3z"/><path d="M12 12l8-4.5M12 12v9M12 12L4 7.5"/></g></g>
  <text x="20" y="32" font-family="JetBrains Mono, ui-monospace, SFMono-Regular, Menlo, Consolas, Liberation Mono, monospace" font-size="10" fill="#2dd4bf" letter-spacing="2" fill-opacity="0.9">FOUNDER</text>
  <text x="20" y="62" font-family="JetBrains Mono, ui-monospace, SFMono-Regular, Menlo, Consolas, Liberation Mono, monospace" font-size="21" fill="#e6edf3" font-weight="700">oriveo</text>
  <text x="20" y="88" font-family="JetBrains Mono, ui-monospace, SFMono-Regular, Menlo, Consolas, Liberation Mono, monospace" font-size="11.5" fill="#8b98a5">BYOK multi-model AI client.</text>
  <text x="20" y="105" font-family="JetBrains Mono, ui-monospace, SFMono-Regular, Menlo, Consolas, Liberation Mono, monospace" font-size="11.5" fill="#8b98a5">15 providers + custom relay.</text>
  <text x="20" y="128" font-family="JetBrains Mono, ui-monospace, SFMono-Regular, Menlo, Consolas, Liberation Mono, monospace" font-size="11" fill="#2dd4bf" fill-opacity="0.85">iOS · Android · Web · Go</text>
  <rect x="299" y="0" width="282" height="148" rx="10" fill="#0e141c" stroke="#1c2733"/>
  <g transform="translate(537, 20)" stroke="#a78bfa" stroke-opacity="0.5" stroke-width="1.8" fill="none" stroke-linecap="round" stroke-linejoin="round"><g transform="scale(1)"><path d="M4 5.5A2.5 2.5 0 016.5 3H19v15H6.5A2.5 2.5 0 004 20.5z"/><path d="M4 20.5A2.5 2.5 0 016.5 18H19v3H6.5A2.5 2.5 0 014 20.5z"/><path d="M9 8h6"/></g></g>
  <text x="319" y="32" font-family="JetBrains Mono, ui-monospace, SFMono-Regular, Menlo, Consolas, Liberation Mono, monospace" font-size="10" fill="#a78bfa" letter-spacing="2" fill-opacity="0.9">OPEN SOURCE</text>
  <text x="319" y="62" font-family="JetBrains Mono, ui-monospace, SFMono-Regular, Menlo, Consolas, Liberation Mono, monospace" font-size="21" fill="#e6edf3" font-weight="700">ownmem</text>
  <text x="319" y="88" font-family="JetBrains Mono, ui-monospace, SFMono-Regular, Menlo, Consolas, Liberation Mono, monospace" font-size="11.5" fill="#8b98a5">Git-native memory for AI</text>
  <text x="319" y="105" font-family="JetBrains Mono, ui-monospace, SFMono-Regular, Menlo, Consolas, Liberation Mono, monospace" font-size="11.5" fill="#8b98a5">coding agents. On npm.</text>
  <text x="319" y="128" font-family="JetBrains Mono, ui-monospace, SFMono-Regular, Menlo, Consolas, Liberation Mono, monospace" font-size="11" fill="#a78bfa" fill-opacity="0.85">★ 272 · Apache-2.0</text>
  <rect x="598" y="0" width="282" height="148" rx="10" fill="#0e141c" stroke="#1c2733"/>
  <g transform="translate(836, 20)" stroke="#2dd4bf" stroke-opacity="0.5" stroke-width="1.8" fill="none" stroke-linecap="round" stroke-linejoin="round"><g transform="scale(1)"><ellipse cx="12" cy="6" rx="7.5" ry="3"/><path d="M4.5 6v6c0 1.66 3.36 3 7.5 3s7.5-1.34 7.5-3V6"/><path d="M4.5 12v6c0 1.66 3.36 3 7.5 3s7.5-1.34 7.5-3v-6"/></g></g>
  <text x="618" y="32" font-family="JetBrains Mono, ui-monospace, SFMono-Regular, Menlo, Consolas, Liberation Mono, monospace" font-size="10" fill="#2dd4bf" letter-spacing="2" fill-opacity="0.9">MAIN STACK</text>
  <text x="618" y="62" font-family="JetBrains Mono, ui-monospace, SFMono-Regular, Menlo, Consolas, Liberation Mono, monospace" font-size="21" fill="#e6edf3" font-weight="700">Go</text>
  <text x="618" y="88" font-family="JetBrains Mono, ui-monospace, SFMono-Regular, Menlo, Consolas, Liberation Mono, monospace" font-size="11.5" fill="#8b98a5">Gin · PostgreSQL · Redis.</text>
  <text x="618" y="105" font-family="JetBrains Mono, ui-monospace, SFMono-Regular, Menlo, Consolas, Liberation Mono, monospace" font-size="11.5" fill="#8b98a5">Handlers, migrations, SSE.</text>
  <text x="618" y="128" font-family="JetBrains Mono, ui-monospace, SFMono-Regular, Menlo, Consolas, Liberation Mono, monospace" font-size="11" fill="#2dd4bf" fill-opacity="0.85">also: tokpet ★ 153</text>
</svg>
