<svg xmlns="http://www.w3.org/2000/svg" width="850" height="220" viewBox="0 0 850 220">
<text x="0" y="24" font-family="JetBrains Mono, monospace" font-size="18" font-weight="700" fill="#0D9488">Most Used Languages (incl. private repos)</text>
<clipPath id="barclip-light"><rect x="0" y="40" width="850" height="14" rx="7.0"/></clipPath>
<rect x="0" y="40" width="850" height="14" rx="7.0" fill="#e5e7eb"/>
<g clip-path="url(#barclip-light)">
<rect x="0.00" y="40" width="212.00" height="14" fill="#3178c6"/>
<rect x="212.00" y="40" width="163.94" height="14" fill="#F05138"/>
<rect x="375.94" y="40" width="162.50" height="14" fill="#A97BFF"/>
<rect x="538.45" y="40" width="127.82" height="14" fill="#555555"/>
<rect x="666.27" y="40" width="88.08" height="14" fill="#00ADD8"/>
<rect x="754.35" y="40" width="39.73" height="14" fill="#f1e05a"/>
<rect x="794.08" y="40" width="24.51" height="14" fill="#e34c26"/>
<rect x="818.59" y="40" width="16.59" height="14" fill="#563d7c"/>
<rect x="835.18" y="40" width="14.82" height="14" fill="#8b949e"/>
</g>
<circle cx="6.0" cy="66" r="5" fill="#3178c6"/>
<text x="18.0" y="70" font-family="JetBrains Mono, monospace" font-size="13" fill="#1F2937">TypeScript</text>
<text x="417.0" y="70" font-family="JetBrains Mono, monospace" font-size="13" text-anchor="end" fill="#4B5563">24.9%</text>
<circle cx="6.0" cy="92" r="5" fill="#F05138"/>
<text x="18.0" y="96" font-family="JetBrains Mono, monospace" font-size="13" fill="#1F2937">Swift</text>
<text x="417.0" y="96" font-family="JetBrains Mono, monospace" font-size="13" text-anchor="end" fill="#4B5563">19.3%</text>
<circle cx="6.0" cy="118" r="5" fill="#A97BFF"/>
<text x="18.0" y="122" font-family="JetBrains Mono, monospace" font-size="13" fill="#1F2937">Kotlin</text>
<text x="417.0" y="122" font-family="JetBrains Mono, monospace" font-size="13" text-anchor="end" fill="#4B5563">19.1%</text>
<circle cx="6.0" cy="144" r="5" fill="#555555"/>
<text x="18.0" y="148" font-family="JetBrains Mono, monospace" font-size="13" fill="#1F2937">C</text>
<text x="417.0" y="148" font-family="JetBrains Mono, monospace" font-size="13" text-anchor="end" fill="#4B5563">15.0%</text>
<circle cx="6.0" cy="170" r="5" fill="#00ADD8"/>
<text x="18.0" y="174" font-family="JetBrains Mono, monospace" font-size="13" fill="#1F2937">Go</text>
<text x="417.0" y="174" font-family="JetBrains Mono, monospace" font-size="13" text-anchor="end" fill="#4B5563">10.4%</text>
<circle cx="431.0" cy="66" r="5" fill="#f1e05a"/>
<text x="443.0" y="70" font-family="JetBrains Mono, monospace" font-size="13" fill="#1F2937">JavaScript</text>
<text x="842.0" y="70" font-family="JetBrains Mono, monospace" font-size="13" text-anchor="end" fill="#4B5563">4.7%</text>
<circle cx="431.0" cy="92" r="5" fill="#e34c26"/>
<text x="443.0" y="96" font-family="JetBrains Mono, monospace" font-size="13" fill="#1F2937">HTML</text>
<text x="842.0" y="96" font-family="JetBrains Mono, monospace" font-size="13" text-anchor="end" fill="#4B5563">2.9%</text>
<circle cx="431.0" cy="118" r="5" fill="#563d7c"/>
<text x="443.0" y="122" font-family="JetBrains Mono, monospace" font-size="13" fill="#1F2937">CSS</text>
<text x="842.0" y="122" font-family="JetBrains Mono, monospace" font-size="13" text-anchor="end" fill="#4B5563">2.0%</text>
<circle cx="431.0" cy="144" r="5" fill="#8b949e"/>
<text x="443.0" y="148" font-family="JetBrains Mono, monospace" font-size="13" fill="#1F2937">Other</text>
<text x="842.0" y="148" font-family="JetBrains Mono, monospace" font-size="13" text-anchor="end" fill="#4B5563">1.7%</text>
</svg>