<svg xmlns="http://www.w3.org/2000/svg" width="850" height="194" viewBox="0 0 850 194">
<text x="0" y="24" font-family="JetBrains Mono, monospace" font-size="18" font-weight="700" fill="#0D9488">Most Used Languages (incl. private repos)</text>
<clipPath id="barclip-light"><rect x="0" y="40" width="850" height="14" rx="7.0"/></clipPath>
<rect x="0" y="40" width="850" height="14" rx="7.0" fill="#e5e7eb"/>
<g clip-path="url(#barclip-light)">
<rect x="0.00" y="40" width="652.61" height="14" fill="#555555"/>
<rect x="652.61" y="40" width="77.01" height="14" fill="#3178c6"/>
<rect x="729.62" y="40" width="40.27" height="14" fill="#563d7c"/>
<rect x="769.89" y="40" width="39.68" height="14" fill="#f1e05a"/>
<rect x="809.57" y="40" width="33.83" height="14" fill="#e34c26"/>
<rect x="843.40" y="40" width="4.06" height="14" fill="#3572A5"/>
<rect x="847.46" y="40" width="1.55" height="14" fill="#8b949e"/>
<rect x="849.01" y="40" width="0.99" height="14" fill="#701516"/>
</g>
<circle cx="6.0" cy="66" r="5" fill="#555555"/>
<text x="18.0" y="70" font-family="JetBrains Mono, monospace" font-size="13" fill="#1F2937">C</text>
<text x="417.0" y="70" font-family="JetBrains Mono, monospace" font-size="13" text-anchor="end" fill="#4B5563">76.8%</text>
<circle cx="6.0" cy="92" r="5" fill="#3178c6"/>
<text x="18.0" y="96" font-family="JetBrains Mono, monospace" font-size="13" fill="#1F2937">TypeScript</text>
<text x="417.0" y="96" font-family="JetBrains Mono, monospace" font-size="13" text-anchor="end" fill="#4B5563">9.1%</text>
<circle cx="6.0" cy="118" r="5" fill="#563d7c"/>
<text x="18.0" y="122" font-family="JetBrains Mono, monospace" font-size="13" fill="#1F2937">CSS</text>
<text x="417.0" y="122" font-family="JetBrains Mono, monospace" font-size="13" text-anchor="end" fill="#4B5563">4.7%</text>
<circle cx="6.0" cy="144" r="5" fill="#f1e05a"/>
<text x="18.0" y="148" font-family="JetBrains Mono, monospace" font-size="13" fill="#1F2937">JavaScript</text>
<text x="417.0" y="148" font-family="JetBrains Mono, monospace" font-size="13" text-anchor="end" fill="#4B5563">4.7%</text>
<circle cx="431.0" cy="66" r="5" fill="#e34c26"/>
<text x="443.0" y="70" font-family="JetBrains Mono, monospace" font-size="13" fill="#1F2937">HTML</text>
<text x="842.0" y="70" font-family="JetBrains Mono, monospace" font-size="13" text-anchor="end" fill="#4B5563">4.0%</text>
<circle cx="431.0" cy="92" r="5" fill="#3572A5"/>
<text x="443.0" y="96" font-family="JetBrains Mono, monospace" font-size="13" fill="#1F2937">Python</text>
<text x="842.0" y="96" font-family="JetBrains Mono, monospace" font-size="13" text-anchor="end" fill="#4B5563">0.5%</text>
<circle cx="431.0" cy="118" r="5" fill="#8b949e"/>
<text x="443.0" y="122" font-family="JetBrains Mono, monospace" font-size="13" fill="#1F2937">CMake</text>
<text x="842.0" y="122" font-family="JetBrains Mono, monospace" font-size="13" text-anchor="end" fill="#4B5563">0.2%</text>
<circle cx="431.0" cy="144" r="5" fill="#701516"/>
<text x="443.0" y="148" font-family="JetBrains Mono, monospace" font-size="13" fill="#1F2937">Ruby</text>
<text x="842.0" y="148" font-family="JetBrains Mono, monospace" font-size="13" text-anchor="end" fill="#4B5563">0.1%</text>
</svg>