<svg xmlns="http://www.w3.org/2000/svg" width="850" height="220" viewBox="0 0 850 220">
<text x="0" y="24" font-family="JetBrains Mono, monospace" font-size="18" font-weight="700" fill="#0D9488">Most Used Languages (incl. private repos)</text>
<clipPath id="barclip-light"><rect x="0" y="40" width="850" height="14" rx="7.0"/></clipPath>
<rect x="0" y="40" width="850" height="14" rx="7.0" fill="#e5e7eb"/>
<g clip-path="url(#barclip-light)">
<rect x="0.00" y="40" width="243.38" height="14" fill="#F05138"/>
<rect x="243.38" y="40" width="191.85" height="14" fill="#3178c6"/>
<rect x="435.23" y="40" width="136.06" height="14" fill="#A97BFF"/>
<rect x="571.29" y="40" width="98.16" height="14" fill="#00ADD8"/>
<rect x="669.45" y="40" width="85.48" height="14" fill="#555555"/>
<rect x="754.94" y="40" width="53.35" height="14" fill="#f1e05a"/>
<rect x="808.28" y="40" width="16.31" height="14" fill="#e34c26"/>
<rect x="824.59" y="40" width="11.61" height="14" fill="#563d7c"/>
<rect x="836.20" y="40" width="13.80" height="14" fill="#8b949e"/>
</g>
<circle cx="6.0" cy="66" r="5" fill="#F05138"/>
<text x="18.0" y="70" font-family="JetBrains Mono, monospace" font-size="13" fill="#1F2937">Swift</text>
<text x="417.0" y="70" font-family="JetBrains Mono, monospace" font-size="13" text-anchor="end" fill="#4B5563">28.6%</text>
<circle cx="6.0" cy="92" r="5" fill="#3178c6"/>
<text x="18.0" y="96" font-family="JetBrains Mono, monospace" font-size="13" fill="#1F2937">TypeScript</text>
<text x="417.0" y="96" font-family="JetBrains Mono, monospace" font-size="13" text-anchor="end" fill="#4B5563">22.6%</text>
<circle cx="6.0" cy="118" r="5" fill="#A97BFF"/>
<text x="18.0" y="122" font-family="JetBrains Mono, monospace" font-size="13" fill="#1F2937">Kotlin</text>
<text x="417.0" y="122" font-family="JetBrains Mono, monospace" font-size="13" text-anchor="end" fill="#4B5563">16.0%</text>
<circle cx="6.0" cy="144" r="5" fill="#00ADD8"/>
<text x="18.0" y="148" font-family="JetBrains Mono, monospace" font-size="13" fill="#1F2937">Go</text>
<text x="417.0" y="148" font-family="JetBrains Mono, monospace" font-size="13" text-anchor="end" fill="#4B5563">11.5%</text>
<circle cx="6.0" cy="170" r="5" fill="#555555"/>
<text x="18.0" y="174" font-family="JetBrains Mono, monospace" font-size="13" fill="#1F2937">C</text>
<text x="417.0" y="174" font-family="JetBrains Mono, monospace" font-size="13" text-anchor="end" fill="#4B5563">10.1%</text>
<circle cx="431.0" cy="66" r="5" fill="#f1e05a"/>
<text x="443.0" y="70" font-family="JetBrains Mono, monospace" font-size="13" fill="#1F2937">JavaScript</text>
<text x="842.0" y="70" font-family="JetBrains Mono, monospace" font-size="13" text-anchor="end" fill="#4B5563">6.3%</text>
<circle cx="431.0" cy="92" r="5" fill="#e34c26"/>
<text x="443.0" y="96" font-family="JetBrains Mono, monospace" font-size="13" fill="#1F2937">HTML</text>
<text x="842.0" y="96" font-family="JetBrains Mono, monospace" font-size="13" text-anchor="end" fill="#4B5563">1.9%</text>
<circle cx="431.0" cy="118" r="5" fill="#563d7c"/>
<text x="443.0" y="122" font-family="JetBrains Mono, monospace" font-size="13" fill="#1F2937">CSS</text>
<text x="842.0" y="122" font-family="JetBrains Mono, monospace" font-size="13" text-anchor="end" fill="#4B5563">1.4%</text>
<circle cx="431.0" cy="144" r="5" fill="#8b949e"/>
<text x="443.0" y="148" font-family="JetBrains Mono, monospace" font-size="13" fill="#1F2937">Other</text>
<text x="842.0" y="148" font-family="JetBrains Mono, monospace" font-size="13" text-anchor="end" fill="#4B5563">1.6%</text>
</svg>