<svg xmlns="http://www.w3.org/2000/svg" width="850" height="220" viewBox="0 0 850 220">
<text x="0" y="24" font-family="JetBrains Mono, monospace" font-size="18" font-weight="700" fill="#2DD4BF">Most Used Languages (incl. private repos)</text>
<clipPath id="barclip-dark"><rect x="0" y="40" width="850" height="14" rx="7.0"/></clipPath>
<rect x="0" y="40" width="850" height="14" rx="7.0" fill="#30363d"/>
<g clip-path="url(#barclip-dark)">
<rect x="0.00" y="40" width="225.72" height="14" fill="#3178c6"/>
<rect x="225.72" y="40" width="166.39" height="14" fill="#F05138"/>
<rect x="392.12" y="40" width="155.23" height="14" fill="#A97BFF"/>
<rect x="547.35" y="40" width="109.46" height="14" fill="#555555"/>
<rect x="656.81" y="40" width="101.75" height="14" fill="#00ADD8"/>
<rect x="758.56" y="40" width="42.48" height="14" fill="#f1e05a"/>
<rect x="801.03" y="40" width="20.38" height="14" fill="#e34c26"/>
<rect x="821.41" y="40" width="14.97" height="14" fill="#563d7c"/>
<rect x="836.39" y="40" width="13.61" height="14" fill="#8b949e"/>
</g>
<circle cx="6.0" cy="66" r="5" fill="#3178c6"/>
<text x="18.0" y="70" font-family="JetBrains Mono, monospace" font-size="13" fill="#C9D1D9">TypeScript</text>
<text x="417.0" y="70" font-family="JetBrains Mono, monospace" font-size="13" text-anchor="end" fill="#9BA1A6">26.6%</text>
<circle cx="6.0" cy="92" r="5" fill="#F05138"/>
<text x="18.0" y="96" font-family="JetBrains Mono, monospace" font-size="13" fill="#C9D1D9">Swift</text>
<text x="417.0" y="96" font-family="JetBrains Mono, monospace" font-size="13" text-anchor="end" fill="#9BA1A6">19.6%</text>
<circle cx="6.0" cy="118" r="5" fill="#A97BFF"/>
<text x="18.0" y="122" font-family="JetBrains Mono, monospace" font-size="13" fill="#C9D1D9">Kotlin</text>
<text x="417.0" y="122" font-family="JetBrains Mono, monospace" font-size="13" text-anchor="end" fill="#9BA1A6">18.3%</text>
<circle cx="6.0" cy="144" r="5" fill="#555555"/>
<text x="18.0" y="148" font-family="JetBrains Mono, monospace" font-size="13" fill="#C9D1D9">C</text>
<text x="417.0" y="148" font-family="JetBrains Mono, monospace" font-size="13" text-anchor="end" fill="#9BA1A6">12.9%</text>
<circle cx="6.0" cy="170" r="5" fill="#00ADD8"/>
<text x="18.0" y="174" font-family="JetBrains Mono, monospace" font-size="13" fill="#C9D1D9">Go</text>
<text x="417.0" y="174" font-family="JetBrains Mono, monospace" font-size="13" text-anchor="end" fill="#9BA1A6">12.0%</text>
<circle cx="431.0" cy="66" r="5" fill="#f1e05a"/>
<text x="443.0" y="70" font-family="JetBrains Mono, monospace" font-size="13" fill="#C9D1D9">JavaScript</text>
<text x="842.0" y="70" font-family="JetBrains Mono, monospace" font-size="13" text-anchor="end" fill="#9BA1A6">5.0%</text>
<circle cx="431.0" cy="92" r="5" fill="#e34c26"/>
<text x="443.0" y="96" font-family="JetBrains Mono, monospace" font-size="13" fill="#C9D1D9">HTML</text>
<text x="842.0" y="96" font-family="JetBrains Mono, monospace" font-size="13" text-anchor="end" fill="#9BA1A6">2.4%</text>
<circle cx="431.0" cy="118" r="5" fill="#563d7c"/>
<text x="443.0" y="122" font-family="JetBrains Mono, monospace" font-size="13" fill="#C9D1D9">CSS</text>
<text x="842.0" y="122" font-family="JetBrains Mono, monospace" font-size="13" text-anchor="end" fill="#9BA1A6">1.8%</text>
<circle cx="431.0" cy="144" r="5" fill="#8b949e"/>
<text x="443.0" y="148" font-family="JetBrains Mono, monospace" font-size="13" fill="#C9D1D9">Other</text>
<text x="842.0" y="148" font-family="JetBrains Mono, monospace" font-size="13" text-anchor="end" fill="#9BA1A6">1.6%</text>
</svg>